<svg width="60" height="60" viewBox="0 0 60 60" fill="none" xmlns="http://www.w3.org/2000/svg">
<circle opacity="0.4" cx="30" cy="30" r="30" fill="#F6DE6C"/>
<g clip-path="url(#clip0_37_69)">
<path d="M45.0624 14H41.25C40.7323 14 40.3125 14.4197 40.3125 14.9375V15.9375H28.3756C28.2209 15.9375 28.0686 15.9757 27.9323 16.0489L19.3579 20.6499C17.9685 21.3955 17.4325 23.0842 18.1376 24.4946C18.8672 25.9537 20.6534 26.5222 22.092 25.752L27.1764 23.0306C27.4254 24.3285 28.5687 25.3124 29.938 25.3124H40.3126V26.2499C40.3126 26.7676 40.7323 27.1874 41.2501 27.1874H45.0624C45.5802 27.1874 45.9999 26.7676 45.9999 26.2499V14.9375C45.9999 14.4197 45.5801 14 45.0624 14ZM29.938 23.4374C29.4211 23.4374 29.0005 23.0169 29.0005 22.4999C29.0005 21.983 29.4211 21.5624 29.938 21.5624H35.5628C36.0805 21.5624 36.5002 21.1427 36.5002 20.6249C36.5002 20.1072 36.0805 19.6875 35.5628 19.6875H29.938C29.1768 19.6875 28.4857 19.9919 27.9789 20.4848C27.8826 20.5211 28.3423 20.2801 21.2073 24.099C20.6984 24.3713 20.0706 24.1681 19.8146 23.6561C19.5663 23.1594 19.7551 22.5647 20.2444 22.3021L28.6112 17.8125H40.3126V23.4374H29.938ZM44.1249 25.3124H42.1875V15.875H44.1249V25.3124ZM43.9374 32.8124H38.9834C37.6249 32.8124 36.3468 32.0887 35.6479 30.9237C34.6121 29.1973 32.718 28.1249 30.7047 28.1249H25.7205C25.6158 28.1249 25.5118 28.1424 25.4128 28.1768L19.6501 30.1791C18.1237 30.7094 17.3561 32.4197 17.9751 33.9128L18.5453 35.2885L14.0929 44.5951C13.7947 45.2185 14.2523 45.9375 14.9379 45.9375C15.2877 45.9375 15.6232 45.7409 15.7843 45.4044L19.5103 37.6162L20.8089 40.7488C21.407 42.1915 23.0626 42.8705 24.5013 42.2625L27.2166 41.1154C27.783 40.877 28.2664 40.4766 28.606 39.9645C28.9456 39.4523 29.1264 38.8513 29.1256 38.2367V29.9999H30.7047C32.0632 29.9999 33.3413 30.7236 34.0402 31.8885C35.076 33.6149 36.9701 34.6873 38.9834 34.6873H42.8754L42.6411 36.5623H38.2501C37.7324 36.5623 37.3126 36.9821 37.3126 37.4998C37.3126 38.0176 37.7324 38.4373 38.2501 38.4373H42.0072C41.2797 39.5712 40.0087 40.3123 38.5862 40.3123H32.3402C31.6409 40.3111 30.9615 40.545 30.4112 40.9765C29.8609 41.4079 29.4715 42.0118 29.3057 42.6911L28.7777 44.8384C28.6327 45.4281 29.079 46 29.6887 46C30.1102 45.9999 30.4932 45.7137 30.5984 45.2861L31.1264 43.1388C31.1927 42.8671 31.3485 42.6255 31.5686 42.453C31.7887 42.2804 32.0605 42.1868 32.3402 42.1873H38.5862C41.5743 42.1873 44.1071 39.9514 44.4777 36.9863L44.8677 33.8661C44.9376 33.3069 44.5011 32.8124 43.9374 32.8124ZM27.2506 38.2367C27.2509 38.4825 27.1786 38.7229 27.0427 38.9278C26.9069 39.1326 26.7136 39.2928 26.487 39.3882L23.7716 40.5353C23.292 40.7379 22.7402 40.5117 22.5408 40.0307L19.7071 33.1948C19.5002 32.6957 19.7555 32.1274 20.2654 31.9502L25.8788 29.9999H27.2506L27.2506 38.2367Z" fill="black"/>
<path d="M32.5004 34.6873C33.0182 34.6873 33.4379 34.2676 33.4379 33.7498C33.4379 33.2321 33.0182 32.8123 32.5004 32.8123C31.9827 32.8123 31.5629 33.2321 31.5629 33.7498C31.5629 34.2676 31.9827 34.6873 32.5004 34.6873Z" fill="black"/>
</g>
<defs>
<clipPath id="clip0_37_69">
<rect width="32" height="32" fill="white" transform="translate(14 14)"/>
</clipPath>
</defs>
</svg>
