<svg width="60" height="60" viewBox="0 0 60 60" fill="none" xmlns="http://www.w3.org/2000/svg">
<circle opacity="0.4" cx="30" cy="30" r="30" fill="#B2A18A"/>
<g clip-path="url(#clip0_34_70)">
<path d="M39.9974 23.1804C40.0163 19.0692 36.6933 15.7453 32.5955 15.7453C30.4227 15.7453 28.385 16.7003 26.9937 18.3091C25.6024 16.7003 23.5647 15.7453 21.3918 15.7453C15.8442 15.7453 11.1574 22.0801 16.058 28.7776C17.254 30.4122 18.8369 31.8652 20.4543 33.0985C21.2993 35.5392 23.2923 37.9761 26.385 40.3471C29.4376 42.6873 32.446 44.1018 32.5726 44.1609C32.7051 44.2227 32.8494 44.2547 32.9956 44.2547C33.1418 44.2547 33.2862 44.2227 33.4186 44.1609C33.9324 43.9212 45.9999 38.2005 45.9999 30.4502C46 26.7886 43.3709 23.8272 39.9974 23.1804ZM15.99 23.1477C15.99 20.1692 18.4133 17.7459 21.3918 17.7459C23.354 17.7459 25.1653 18.8135 26.119 20.532C26.4993 21.2173 27.4877 21.218 27.8683 20.532C29.6107 17.3924 33.8758 16.7883 36.4153 19.328C37.4176 20.3302 37.9775 21.6574 37.9968 23.0721C37.3054 23.1293 36.6253 23.2828 35.9764 23.528C36.2739 20.6951 33.2418 18.816 30.8684 20.219C30.0141 20.7225 29.7129 21.3681 29.5124 21.6794C28.2951 23.57 25.4736 23.4934 24.3691 21.5027C23.7682 20.4195 22.6274 19.7466 21.3917 19.7466C19.3493 19.7466 17.6875 21.566 18.0388 23.728C18.469 26.3763 21.5627 29.0157 23.7691 30.5671C24.9631 31.4068 26.3442 32.2234 26.5564 32.3265C27.132 32.6063 27.5789 32.2469 27.97 32.0155C29.3745 31.1846 29.5508 30.9801 29.5974 31.0232C30.1357 31.5213 30.7847 31.8977 31.4879 32.1191C30.0207 33.1603 28.3991 34.1256 26.9938 34.837C22.6333 32.6268 15.99 28.0347 15.99 23.1477ZM30.4283 23.6923C30.8006 23.3382 31.1217 22.9167 31.368 22.4727C32.1155 21.1232 34.2108 21.7884 33.9778 23.3866C33.8747 24.1025 33.3456 24.9104 32.8986 25.48C32.8628 25.5256 32.114 24.4472 30.4283 23.6923ZM22.0927 25.2773C21.6454 25.7376 21.5052 25.9805 21.4936 25.9675C20.9159 25.316 20.2471 24.4144 20.0464 23.5679C19.6283 21.8068 21.856 21.0964 22.6198 22.4733C22.9479 23.0646 23.3745 23.5614 23.8465 23.9454C23.1982 24.2985 22.6069 24.7475 22.0927 25.2773ZM28.3387 29.4179C28.3488 29.4271 27.6854 29.8589 26.9934 30.2694C26.7172 30.1054 26.4434 29.9374 26.1721 29.7654C26.612 28.9776 27.6726 28.8094 28.3387 29.4179ZM35.4169 31.7329C35.9188 31.4584 36.3683 31.0974 36.7447 30.6667C37.4673 29.8405 37.3662 29.4516 38.0542 29.1602C38.9748 28.7705 39.998 29.4511 39.998 30.4502C39.998 31.4334 38.9358 33.2983 35.9546 35.5838C35.0752 36.2578 34.0608 36.9389 32.9955 37.5716C31.9521 36.9521 30.8964 36.2503 29.9333 35.5041C31.4376 34.6174 32.9202 33.6116 34.2351 32.5471C35.4094 31.5965 34.5537 32.2054 35.4169 31.7329ZM32.9952 42.1388C29.966 40.602 26.4416 38.2398 24.244 35.617C24.7234 35.896 25.2088 36.1644 25.7001 36.422C27.0248 37.1146 26.9488 37.1097 28.0395 36.5497C29.5657 37.8176 32.2761 39.5704 32.7342 39.6945C32.9897 39.7628 33.2618 39.728 33.4919 39.5977C36.4119 37.9293 40.8469 34.8196 41.8199 31.5893C42.7944 28.3542 39.4582 25.9919 36.8705 27.5214C35.9617 28.057 35.6616 28.7643 35.4784 29.0371C34.2521 30.8621 31.4712 30.7871 30.3711 28.8051C29.115 26.5407 25.8903 26.4569 24.5185 28.628C24.497 28.662 22.9221 27.4164 22.9462 27.3816C25.1332 24.2005 29.9103 24.2724 31.9836 27.6003C32.1139 27.8103 32.3326 28.349 32.9951 28.3495C33.1736 28.3496 33.349 28.3019 33.5029 28.2113C33.6568 28.1208 33.7837 27.9907 33.8703 27.8345C35.6132 24.6939 39.8788 24.0918 42.4173 26.6304C43.4375 27.6505 43.9993 29.0071 43.9993 30.4502C43.9993 36.2092 35.0628 41.0876 32.9952 42.1388Z" fill="black"/>
</g>
<defs>
<clipPath id="clip0_34_70">
<rect width="32" height="32" fill="white" transform="translate(14 14)"/>
</clipPath>
</defs>
</svg>
