<svg width="60" height="60" viewBox="0 0 60 60" fill="none" xmlns="http://www.w3.org/2000/svg">
<circle opacity="0.4" cx="30" cy="30" r="30" fill="#B2A18A"/>
<g clip-path="url(#clip0_38_118)">
<path d="M45.875 25.5C45.8758 23.8459 45.2793 22.2472 44.1953 20.9978C43.1113 19.7485 41.6127 18.9325 39.975 18.7C39.6371 17.7431 39.0912 16.8732 38.3765 16.1528C37.6618 15.4324 36.7962 14.8795 35.8421 14.534C34.8879 14.1885 33.869 14.059 32.8588 14.1548C31.8486 14.2506 30.8722 14.5693 30 15.088C29.1279 14.5696 28.1516 14.2511 27.1416 14.1554C26.1315 14.0598 25.1128 14.1894 24.1589 14.5348C23.2049 14.8803 22.3395 15.4331 21.6249 16.1533C20.9103 16.8736 20.3644 17.7434 20.0265 18.7C18.8037 18.8728 17.6502 19.3724 16.6876 20.1461C15.725 20.9197 14.989 21.9388 14.5573 23.0959C14.1255 24.2529 14.014 25.505 14.2345 26.7202C14.455 27.9353 14.9993 29.0684 15.81 30C14.9993 30.9316 14.455 32.0647 14.2345 33.2798C14.014 34.495 14.1255 35.7471 14.5573 36.9041C14.989 38.0612 15.725 39.0803 16.6876 39.8539C17.6502 40.6276 18.8037 41.1272 20.0265 41.3C20.3644 42.2566 20.9103 43.1264 21.6249 43.8467C22.3395 44.5669 23.2049 45.1197 24.1589 45.4652C25.1128 45.8106 26.1315 45.9402 27.1416 45.8446C28.1516 45.7489 29.1279 45.4304 30 44.912C30.8721 45.4304 31.8484 45.7489 32.8585 45.8446C33.8685 45.9402 34.8872 45.8106 35.8411 45.4652C36.7951 45.1197 37.6605 44.5669 38.3751 43.8467C39.0897 43.1264 39.6356 42.2566 39.9735 41.3C41.1963 41.1272 42.3498 40.6276 43.3124 39.8539C44.275 39.0803 45.011 38.0612 45.4427 36.9041C45.8745 35.7471 45.986 34.495 45.7655 33.2798C45.545 32.0647 45.0007 30.9316 44.19 30C45.275 28.7517 45.8733 27.1539 45.875 25.5ZM20.737 20.389C20.9236 20.3798 21.1024 20.3109 21.247 20.1926C21.3917 20.0742 21.4945 19.9126 21.5405 19.7315C21.7361 18.9586 22.1097 18.2422 22.6317 17.6395C23.1536 17.0369 23.8093 16.5647 24.5464 16.2608C25.2834 15.9568 26.0814 15.8296 26.8764 15.8892C27.6714 15.9488 28.4415 16.1936 29.125 16.604V19.625H28C27.2375 19.625 26.5062 19.9279 25.9671 20.4671C25.4279 21.0062 25.125 21.7375 25.125 22.5C25.125 23.2625 25.4279 23.9938 25.9671 24.5329C26.5062 25.0721 27.2375 25.375 28 25.375H29.125V29.125H24.5C24.268 29.1251 24.0455 29.2174 23.8814 29.3814C23.7174 29.5455 23.6251 29.768 23.625 30V32C23.625 32.2984 23.5065 32.5845 23.2955 32.7955C23.0845 33.0065 22.7984 33.125 22.5 33.125C22.2016 33.125 21.9155 33.0065 21.7045 32.7955C21.4935 32.5845 21.375 32.2984 21.375 32V30C21.3749 29.768 21.2826 29.5455 21.1186 29.3814C20.9545 29.2174 20.732 29.1251 20.5 29.125H17.3855C16.682 28.4265 16.1967 27.5386 15.9886 26.5692C15.7806 25.5999 15.8588 24.591 16.2138 23.6654C16.5688 22.7397 17.1852 21.9372 17.9879 21.3555C18.7907 20.7738 19.7453 20.438 20.7355 20.389H20.737ZM29.125 43.3965C28.4414 43.8067 27.6713 44.0513 26.8763 44.1107C26.0812 44.1702 25.2833 44.0428 24.5463 43.7388C23.8093 43.4348 23.1537 42.9626 22.6317 42.3599C22.1098 41.7573 21.7361 41.0409 21.5405 40.268C21.4943 40.087 21.3914 39.9255 21.2468 39.8072C21.1022 39.6889 20.9236 39.62 20.737 39.6105C19.7468 39.5616 18.7922 39.2259 17.9894 38.6443C17.1865 38.0627 16.5701 37.2602 16.2151 36.3345C15.8601 35.4089 15.7819 34.4 15.99 33.4307C16.198 32.4614 16.6834 31.5734 17.387 30.875H19.625V32C19.625 32.7625 19.9279 33.4938 20.4671 34.0329C21.0062 34.5721 21.7375 34.875 22.5 34.875C23.2625 34.875 23.9938 34.5721 24.5329 34.0329C25.0721 33.4938 25.375 32.7625 25.375 32V30.875H29.125V35.5C29.1251 35.732 29.2174 35.9545 29.3814 36.1186C29.5455 36.2826 29.768 36.3749 30 36.375H32C32.2984 36.375 32.5845 36.4935 32.7955 36.7045C33.0065 36.9155 33.125 37.2016 33.125 37.5C33.125 37.7984 33.0065 38.0845 32.7955 38.2955C32.5845 38.5065 32.2984 38.625 32 38.625H30C29.768 38.6251 29.5455 38.7174 29.3814 38.8814C29.2174 39.0455 29.1251 39.268 29.125 39.5V43.3965ZM39.263 39.611C39.0764 39.6202 38.8976 39.6891 38.753 39.8074C38.6083 39.9258 38.5055 40.0874 38.4595 40.2685C38.264 41.0414 37.8903 41.7578 37.3683 42.3605C36.8464 42.9632 36.1907 43.4353 35.4536 43.7393C34.7166 44.0432 33.9186 44.1704 33.1236 44.1108C32.3286 44.0512 31.5585 43.8064 30.875 43.396V40.375H32C32.7625 40.375 33.4938 40.0721 34.0329 39.5329C34.5721 38.9938 34.875 38.2625 34.875 37.5C34.875 36.7375 34.5721 36.0062 34.0329 35.4671C33.4938 34.9279 32.7625 34.625 32 34.625H30.875V30.875H35.5C35.732 30.8749 35.9545 30.7826 36.1186 30.6186C36.2826 30.4545 36.3749 30.232 36.375 30V28C36.375 27.7016 36.4935 27.4155 36.7045 27.2045C36.9155 26.9935 37.2016 26.875 37.5 26.875C37.7984 26.875 38.0845 26.9935 38.2955 27.2045C38.5065 27.4155 38.625 27.7016 38.625 28V30C38.6251 30.232 38.7174 30.4545 38.8814 30.6186C39.0455 30.7826 39.268 30.8749 39.5 30.875H42.6145C43.318 31.5735 43.8033 32.4614 44.0114 33.4308C44.2194 34.4001 44.1412 35.409 43.7862 36.3346C43.4312 37.2603 42.8149 38.0628 42.0121 38.6445C41.2093 39.2262 40.2547 39.562 39.2645 39.611H39.263ZM42.613 29.125H40.375V28C40.375 27.2375 40.0721 26.5062 39.5329 25.9671C38.9938 25.4279 38.2625 25.125 37.5 25.125C36.7375 25.125 36.0062 25.4279 35.4671 25.9671C34.9279 26.5062 34.625 27.2375 34.625 28V29.125H30.875V24.5C30.8749 24.268 30.7826 24.0455 30.6186 23.8814C30.4545 23.7174 30.232 23.6251 30 23.625H28C27.7016 23.625 27.4155 23.5065 27.2045 23.2955C26.9935 23.0845 26.875 22.7984 26.875 22.5C26.875 22.2016 26.9935 21.9155 27.2045 21.7045C27.4155 21.4935 27.7016 21.375 28 21.375H30C30.232 21.3749 30.4545 21.2826 30.6186 21.1186C30.7826 20.9545 30.8749 20.732 30.875 20.5V16.6035C31.5586 16.1933 32.3287 15.9487 33.1237 15.8893C33.9188 15.8299 34.7167 15.9572 35.4537 16.2612C36.1907 16.5652 36.8463 17.0374 37.3683 17.6401C37.8902 18.2427 38.2639 18.9591 38.4595 19.732C38.5057 19.913 38.6086 20.0745 38.7532 20.1928C38.8978 20.3111 39.0764 20.38 39.263 20.3895C40.2533 20.4382 41.2081 20.7737 42.011 21.3553C42.814 21.9369 43.4306 22.7395 43.7856 23.6652C44.1406 24.591 44.2188 25.6 44.0106 26.5694C43.8024 27.5387 43.3168 28.4267 42.613 29.125Z" fill="black"/>
</g>
<defs>
<clipPath id="clip0_38_118">
<rect width="32" height="32" fill="white" transform="translate(14 14)"/>
</clipPath>
</defs>
</svg>
