<svg width="60" height="60" viewBox="0 0 60 60" fill="none" xmlns="http://www.w3.org/2000/svg">
<circle opacity="0.4" cx="30" cy="30" r="30" fill="#F6DE6C"/>
<path d="M30 45C29.9434 44.9998 29.8869 44.9944 29.8312 44.9841C28.3106 44.7075 20.5594 42.9863 17.4309 36.255C16.6656 34.5922 16.238 32.794 16.1728 30.9647L16.1719 15.9375C16.1719 15.7858 16.2088 15.6364 16.2793 15.502C16.3498 15.3677 16.4518 15.2525 16.5767 15.1663C16.7015 15.0801 16.8454 15.0255 16.996 15.0071C17.1466 14.9888 17.2994 15.0072 17.4413 15.061C19.2199 15.7351 21.0977 16.1104 22.9987 16.1719C25.273 16.24 27.5387 15.8626 29.6681 15.061C29.8817 14.9802 30.1174 14.9802 30.3309 15.061C32.4598 15.866 34.7264 16.2438 37.0013 16.1728C38.9024 16.1111 40.7802 15.7354 42.5587 15.061C42.7006 15.0072 42.8534 14.9888 43.004 15.0071C43.1546 15.0255 43.2985 15.0801 43.4233 15.1663C43.5482 15.2525 43.6502 15.3677 43.7207 15.502C43.7912 15.6364 43.8281 15.7858 43.8281 15.9375V30.9263C43.7666 32.7685 43.3386 34.58 42.5691 36.255C39.4397 42.9863 31.6894 44.7085 30.1678 44.9841C30.1125 44.9944 30.0563 44.9997 30 45ZM18.0469 17.2453V30.9263C18.1064 32.4954 18.475 34.0373 19.1316 35.4638C21.7725 41.1469 28.3125 42.7763 30 43.1091C31.6875 42.7763 38.2275 41.1469 40.8684 35.4638C41.5291 34.0255 41.8981 32.4705 41.9541 30.8888L41.9531 17.2444C40.3643 17.723 38.7198 17.9921 37.0612 18.045C34.6584 18.128 32.2617 17.7516 30 16.936C27.7382 17.7516 25.3417 18.1286 22.9388 18.0469C21.2802 17.9937 19.6357 17.7242 18.0469 17.2453Z" fill="black"/>
<path d="M30 41.1684C29.9268 41.1687 29.8537 41.1602 29.7825 41.1431C27.7725 40.6631 22.8759 39.0713 20.8322 34.6744C20.2857 33.4837 19.9768 32.1978 19.9228 30.8887L19.9219 20.7028C19.9219 20.57 19.9502 20.4387 20.0048 20.3176C20.0594 20.1966 20.1392 20.0885 20.2387 20.0006C20.3383 19.9126 20.4553 19.8469 20.5822 19.8076C20.7091 19.7683 20.8429 19.7565 20.9747 19.7728C21.5991 19.8497 22.2403 19.9003 22.8788 19.9209C25.1956 19.9946 27.5087 19.6845 29.7244 19.0031C29.904 18.9483 30.096 18.9483 30.2756 19.0031C32.4909 19.689 34.8054 19.9992 37.1231 19.9209C37.7606 19.9003 38.4009 19.8497 39.0263 19.7728C39.158 19.7566 39.2917 19.7686 39.4184 19.8079C39.5452 19.8472 39.6622 19.913 39.7616 20.001C39.861 20.0889 39.9407 20.1969 39.9952 20.3179C40.0498 20.4389 40.0781 20.5701 40.0781 20.7028V30.8428C40.0289 32.1669 39.7199 33.4685 39.1688 34.6734C37.1241 39.0722 32.2275 40.6631 30.2175 41.1422C30.1463 41.1596 30.0733 41.1684 30 41.1684ZM21.7969 21.7378V30.8437C21.8438 31.8951 22.0933 32.9274 22.5319 33.8841C24.1641 37.3959 28.1428 38.7928 30 39.2653C31.8572 38.7928 35.8359 37.3959 37.4681 33.8841C37.9116 32.9135 38.1616 31.8659 38.2041 30.7997L38.2031 21.7387C37.6192 21.784 37.0338 21.8069 36.4481 21.8072C34.2654 21.8075 32.0939 21.4947 30 20.8781C27.6706 21.5654 25.2461 21.8752 22.8188 21.7959C22.4778 21.784 22.1371 21.765 21.7969 21.7387V21.7378Z" fill="black"/>
<path d="M32.8125 34.6875H27.1875C26.6904 34.687 26.2137 34.4893 25.8622 34.1378C25.5107 33.7863 25.313 33.3096 25.3125 32.8125V29.0625C25.313 28.5654 25.5107 28.0887 25.8622 27.7372C26.2137 27.3857 26.6904 27.188 27.1875 27.1875H32.8125C33.3096 27.188 33.7863 27.3857 34.1378 27.7372C34.4893 28.0887 34.687 28.5654 34.6875 29.0625V32.8125C34.687 33.3096 34.4893 33.7863 34.1378 34.1378C33.7863 34.4893 33.3096 34.687 32.8125 34.6875ZM27.1875 29.0625V32.8125H32.8144L32.8125 29.0625H27.1875Z" fill="black"/>
<path d="M31.875 29.0625H28.125C27.8764 29.0625 27.6379 28.9637 27.4621 28.7879C27.2863 28.6121 27.1875 28.3736 27.1875 28.125V26.25C27.1875 25.5041 27.4838 24.7887 28.0113 24.2613C28.5387 23.7338 29.2541 23.4375 30 23.4375C30.7459 23.4375 31.4613 23.7338 31.9887 24.2613C32.5162 24.7887 32.8125 25.5041 32.8125 26.25V28.125C32.8125 28.3736 32.7137 28.6121 32.5379 28.7879C32.3621 28.9637 32.1236 29.0625 31.875 29.0625ZM29.0625 27.1875H30.9375V26.25C30.9375 26.0014 30.8387 25.7629 30.6629 25.5871C30.4871 25.4113 30.2486 25.3125 30 25.3125C29.7514 25.3125 29.5129 25.4113 29.3371 25.5871C29.1613 25.7629 29.0625 26.0014 29.0625 26.25V27.1875Z" fill="black"/>
</svg>
